<svg xmlns="http://www.w3.org/2000/svg" viewBox="0 0 33.317 38.426">
  <defs>
    <style>
      .cls-1, .cls-2 {
        fill: #358e81;
      }

      .cls-2 {
        stroke: #358e81;
        stroke-width: 2px;
      }

      .cls-3 {
        fill: #fff;
      }
    </style>
  </defs>
  <g id="Group_615" data-name="Group 615" transform="translate(0.998)">
    <g id="icono-de-bolso-de-la-compra" transform="translate(0 0)">
      <g id="Group_330" data-name="Group 330" transform="translate(0)">
        <g id="Group_329" data-name="Group 329" transform="translate(0)">
          <path id="Path_157" data-name="Path 157" class="cls-1" d="M15.306,15.692a1.567,1.567,0,0,0,1.573-1.559V8.051a4.975,4.975,0,0,1,9.95,0v6.082a1.573,1.573,0,0,0,3.146,0V8.051a8.121,8.121,0,0,0-16.242,0v6.082A1.566,1.566,0,0,0,15.306,15.692Z" transform="translate(-6.185)"/>
          <path id="Path_158" data-name="Path 158" class="cls-2" d="M32.789,15.631H27.414v1.945c0,1.72-.507,3.119-2.242,3.119a3.136,3.136,0,0,1-3.146-3.119l.967-.387V15.631H14.508v1.945c0,1.72-.7,3.119-2.432,3.119s-1.79-1.4-1.79-3.119V15.631H4.508c-.434,0-1.651,1.527-1.548,1.945l2.43,21.033a3.222,3.222,0,0,0,2.961,2.261H28.8a3.226,3.226,0,0,0,2.963-2.261l2.5-21.447C34.369,16.743,33.224,15.631,32.789,15.631Z" transform="translate(-2.954 -3.443)"/>
        </g>
      </g>
    </g>
    <path id="Path_159" data-name="Path 159" class="cls-3" d="M157.29,44.021a21.846,21.846,0,0,1-4.4,4.779,33.87,33.87,0,0,1-6.351,4.134.8.8,0,0,1-.339.074.82.82,0,0,1-.339-.074,33.868,33.868,0,0,1-6.351-4.134,21.844,21.844,0,0,1-4.4-4.779,11.58,11.58,0,0,1-2.045-6.34,7.791,7.791,0,0,1,8-7.544c1.9,0,3.7,1.158,5.14,2.3,1.44-1.143,3.237-2.3,5.14-2.3a7.791,7.791,0,0,1,8,7.544A11.6,11.6,0,0,1,157.29,44.021Z" transform="translate(-130.335 -16.299)"/>
  </g>
</svg>
