<svg xmlns="http://www.w3.org/2000/svg" viewBox="0 0 148.489 72.667">
  <defs>
    <style>
      .cls-1 {
        fill: #e9a07c;
      }

      .cls-2 {
        fill: #358e81;
      }
    </style>
  </defs>
  <g id="Group_590" data-name="Group 590" transform="translate(-129.667 -62)">
    <path id="path36" class="cls-1" d="M98.817,75.761l.357.112" transform="translate(178.982 19.958)"/>
    <path id="path38" class="cls-1" d="M73.46,91.684a2.445,2.445,0,0,0,.6-1.654,2.338,2.338,0,0,0-1.089-2.115,2.314,2.314,0,0,0-1.277-.457l-.2.048v4.935h.236a2.2,2.2,0,0,0,1.735-.757Zm-1.971-9.9v4.48l.2.046a1.394,1.394,0,0,0,.93-.44,2.789,2.789,0,0,0,.741-2.129,2.558,2.558,0,0,0-.3-1.42,1.531,1.531,0,0,0-1.341-.536Zm3.548,8.249a3.164,3.164,0,0,1-1.31,2.806,3.309,3.309,0,0,1-1.892.584H70.448V80.8h1.387q2.506,0,2.507,2.933a3.574,3.574,0,0,1-1.293,3.091,3.338,3.338,0,0,1,1.988,3.2" transform="translate(59.218 41.248)"/>
    <path id="path40" class="cls-1" d="M79.34,88.4l-.772-5.867L77.794,88.4Zm.111.834H77.686l-.538,4.18H76.107L78.016,80.8h1.12l1.908,12.615H80l-.553-4.18" transform="translate(83.109 41.247)"/>
    <path id="path42" class="cls-1" d="M84.113,85.155a38.142,38.142,0,0,0,2.207,8.264H85.17a55.764,55.764,0,0,1-1.831-6.86l-.472.868v5.992H81.827V80.8h1.041v4.731L85.452,80.8h1.026l-2.365,4.351" transform="translate(107.256 41.247)"/>
    <path id="path44" class="cls-1" d="M88.524,81.781v3.343h1.719v.962H88.524v6.355H90.37v.978H87.483V80.8H90.37v.976H88.524" transform="translate(131.135 41.247)"/>
    <path id="path46" class="cls-1" d="M94.043,86.307a1.394,1.394,0,0,0,.93-.44,2.788,2.788,0,0,0,.742-2.129,2.555,2.555,0,0,0-.3-1.42,1.531,1.531,0,0,0-1.341-.536h-.236v4.48Zm2.1,7.112A55.958,55.958,0,0,1,94.469,87.3c-.284.1-.493.158-.63.19v5.93H92.8V80.8h1.387q2.506,0,2.507,2.933A3.575,3.575,0,0,1,95.4,86.828a37.758,37.758,0,0,0,1.892,6.591H96.141" transform="translate(153.572 41.247)"/>
    <path id="path48" class="cls-1" d="M102.59,80.8,100.7,86.891v6.528H99.673V86.891L97.781,80.8h1.041l1.356,4.416L101.55,80.8h1.041" transform="translate(174.608 41.248)"/>
    <path id="path50" class="cls-2" d="M81.993,119.069v3.909H70.456V69.3h4.161V119.07h7.376" transform="translate(59.252 -7.304)"/>
    <path id="path52" class="cls-2" d="M77.539,73.833V87.2H84.41v3.846H77.539V116.45h7.376v3.909H73.377V69.924H84.914v3.909H77.539" transform="translate(71.584 -4.685)"/>
    <path id="path54" class="cls-2" d="M87.679,90.16q2.962-2.771,2.964-8.51,0-3.971-1.2-5.674-1.511-2.141-5.359-2.142H83.14v17.9a1.565,1.565,0,0,0,.82.19,5.546,5.546,0,0,0,3.719-1.767Zm-2.332,5.863q-1.514.442-2.207.632v23.7H78.979V69.924h5.548q10.022,0,10.023,11.725,0,11.287-9.2,14.374" transform="translate(95.233 -4.685)"/>
    <path id="path56" class="cls-2" d="M95.038,100.311,91.948,76.858l-3.089,23.453Zm.44,3.342H88.417l-2.142,16.706H82.113l7.628-50.435h4.476l7.628,50.435H97.685l-2.207-16.706" transform="translate(108.465 -4.684)"/>
    <path id="path58" class="cls-2" d="M92.839,95.65q-6.115-7.06-6.114-11.6a20.3,20.3,0,0,1,1.26-6.241q2.523-6.493,8.763-8.006l2.207,3.529q-7.438.63-8.006,11.1,0,2.141,2.9,6.114,1.829,2.335,3.656,4.6,4.6,6.43,4.6,12.1a19.15,19.15,0,0,1-1.45,6.241,13.229,13.229,0,0,1-9.9,8.008l-2.142-3.531a9.265,9.265,0,0,0,8.068-5.863,14.727,14.727,0,0,0,1.2-5.232q0-5.358-5.044-11.222" transform="translate(127.936 -5.194)"/>
    <path id="path60" class="cls-2" d="M104.782,73.833H99.361v46.526H95.2V73.833H89.779V69.924h15v3.909" transform="translate(140.826 -4.685)"/>
    <path id="path62" class="cls-2" d="M97.618,73.833V87.2h6.873v3.846H97.618V116.45h7.376v3.909H93.456V69.924h11.537v3.909H97.618" transform="translate(156.351 -4.685)"/>
    <path id="path64" class="cls-2" d="M108.112,116.45v3.909H96.575V69.924h4.161V116.45h7.376" transform="translate(169.516 -4.685)"/>
  </g>
</svg>
