<svg xmlns="http://www.w3.org/2000/svg" viewBox="0 0 32.871 32.871">
  <defs>
    <style>
      .cls-1 {
        fill: none;
      }

      .cls-2 {
        fill: #358e81;
      }
    </style>
  </defs>
  <g id="Search" transform="translate(106.25 -7824.75)">
    <rect id="Rectangle_176" data-name="Rectangle 176" class="cls-1" width="16" height="16" transform="translate(-96 7835)"/>
    <path id="Path_99" data-name="Path 99" class="cls-2" d="M32.871,29.976l-6.822-6.822a14.154,14.154,0,0,0,2.894-8.683A14.382,14.382,0,0,0,14.471,0,14.382,14.382,0,0,0,0,14.471,14.382,14.382,0,0,0,14.471,28.943a14.155,14.155,0,0,0,8.683-2.894l6.822,6.822ZM4.135,14.471A10.236,10.236,0,0,1,14.471,4.135,10.236,10.236,0,0,1,24.808,14.471,10.236,10.236,0,0,1,14.471,24.808,10.236,10.236,0,0,1,4.135,14.471Z" transform="translate(-106.25 7824.75)"/>
  </g>
</svg>
